<svg width="168" height="21" viewBox="0 0 168 21" fill="none" xmlns="http://www.w3.org/2000/svg">
<path d="M11.6 20H9.248L6.084 12.804C5.99067 12.5987 5.86933 12.3187 5.72 11.964C5.58933 11.6093 5.44 11.2173 5.272 10.788C5.104 10.3587 4.92667 9.91067 4.74 9.444C4.55333 8.95867 4.376 8.47333 4.208 7.988C4.208 8.47333 4.19867 8.95867 4.18 9.444C4.18 9.91067 4.17067 10.3587 4.152 10.788C4.13333 11.1987 4.11467 11.572 4.096 11.908C4.096 12.2253 4.096 12.4773 4.096 12.664L3.816 20H0.68L1.8 0.987999H4.404L9.192 12.86C9.36 13.2893 9.54667 13.756 9.752 14.26C9.976 14.764 10.1813 15.2587 10.368 15.744C10.5547 15.2587 10.7507 14.7733 10.956 14.288C11.1613 13.784 11.3573 13.308 11.544 12.86L16.36 0.987999H18.908L20.028 20H16.92L16.612 12.748C16.5933 12.2813 16.5653 11.6187 16.528 10.76C16.5093 9.88267 16.4907 8.996 16.472 8.1C16.304 8.56667 16.1267 9.03333 15.94 9.5C15.772 9.96667 15.6133 10.4053 15.464 10.816C15.3147 11.2267 15.1747 11.6 15.044 11.936C14.9133 12.272 14.8107 12.5333 14.736 12.72L11.6 20ZM31.2433 0.791999C32.6433 0.791999 33.838 1.016 34.8273 1.464C35.8166 1.912 36.6286 2.54667 37.2633 3.368C37.9166 4.18933 38.3926 5.19733 38.6913 6.392C38.99 7.568 39.1393 8.89333 39.1393 10.368C39.1393 11.824 38.9713 13.1587 38.6353 14.372C38.318 15.5667 37.814 16.5933 37.1233 17.452C36.4513 18.3107 35.5926 18.9827 34.5473 19.468C33.5206 19.9347 32.298 20.168 30.8793 20.168C29.4793 20.168 28.2753 19.9627 27.2673 19.552C26.278 19.1227 25.4566 18.5067 24.8033 17.704C24.1686 16.8827 23.702 15.8933 23.4033 14.736C23.1046 13.5787 22.9553 12.2533 22.9553 10.76C22.9553 9.304 23.114 7.96933 23.4313 6.756C23.7673 5.524 24.2713 4.46933 24.9433 3.592C25.634 2.696 26.502 2.00533 27.5473 1.52C28.5926 1.03467 29.8246 0.791999 31.2433 0.791999ZM30.8513 3.368C30.03 3.368 29.3486 3.55467 28.8073 3.928C28.266 4.28267 27.8273 4.77733 27.4913 5.412C27.1553 6.04667 26.9126 6.79333 26.7633 7.652C26.6326 8.51067 26.5673 9.444 26.5673 10.452C26.5673 11.404 26.6326 12.3093 26.7633 13.168C26.894 14.0267 27.1273 14.7827 27.4633 15.436C27.818 16.0893 28.294 16.612 28.8913 17.004C29.5073 17.396 30.3006 17.592 31.2713 17.592C32.074 17.592 32.746 17.4147 33.2873 17.06C33.8473 16.7053 34.2953 16.22 34.6313 15.604C34.9673 14.988 35.2006 14.26 35.3313 13.42C35.4806 12.5613 35.5553 11.6373 35.5553 10.648C35.5553 9.696 35.49 8.78133 35.3593 7.904C35.2286 7.02667 34.986 6.252 34.6313 5.58C34.2953 4.908 33.8193 4.376 33.2033 3.984C32.606 3.57333 31.822 3.368 30.8513 3.368ZM45.3824 1.044V12.776C45.3824 14.512 45.7464 15.7533 46.4744 16.5C47.2024 17.228 48.1918 17.592 49.4424 17.592C50.7118 17.592 51.6451 17.172 52.2424 16.332C52.8584 15.4733 53.1664 14.288 53.1664 12.776V1.044H56.4984V13.028C56.4984 13.9987 56.3678 14.9133 56.1064 15.772C55.8638 16.6307 55.4531 17.3867 54.8744 18.04C54.2958 18.6933 53.5304 19.216 52.5784 19.608C51.6264 19.9813 50.4598 20.168 49.0784 20.168C47.7531 20.168 46.6424 19.9813 45.7464 19.608C44.8691 19.216 44.1504 18.6933 43.5904 18.04C43.0491 17.3867 42.6571 16.6307 42.4144 15.772C42.1904 14.9133 42.0784 13.9987 42.0784 13.028V1.044H45.3824ZM71.3319 1.044H74.6639V20.028H71.8919L65.5079 10.06C65.1532 9.51867 64.7612 8.912 64.3319 8.24C63.9212 7.54933 63.5292 6.91467 63.1559 6.336C63.2119 6.93333 63.2585 7.55867 63.2959 8.212C63.3519 8.86533 63.3799 9.49067 63.3799 10.088L63.4639 20H60.1319V0.987999H62.7359L69.3159 10.844C69.6892 11.3853 70.0625 11.964 70.4359 12.58C70.8279 13.1773 71.2105 13.756 71.5839 14.316C71.5465 13.7187 71.5092 13.1213 71.4719 12.524C71.4345 11.908 71.4159 11.3853 71.4159 10.956L71.3319 1.044ZM90.1249 1.044L89.7049 3.564H85.0009V20H81.6969V3.564H76.9089V1.044H90.1249ZM103.346 11.88H96.7935V20H92.1735V1.044H96.7935V8.464H103.346V1.044H107.938V20H103.346V11.88ZM119.599 0.791999C121.074 0.791999 122.343 1.016 123.407 1.464C124.471 1.912 125.348 2.54667 126.039 3.368C126.73 4.18933 127.234 5.19733 127.551 6.392C127.887 7.568 128.055 8.89333 128.055 10.368C128.055 11.824 127.868 13.1587 127.495 14.372C127.14 15.5667 126.599 16.5933 125.871 17.452C125.143 18.3107 124.228 18.9827 123.127 19.468C122.026 19.9347 120.728 20.168 119.235 20.168C117.76 20.168 116.482 19.9627 115.399 19.552C114.335 19.1227 113.458 18.5067 112.767 17.704C112.076 16.8827 111.563 15.8933 111.227 14.736C110.91 13.5787 110.751 12.2533 110.751 10.76C110.751 9.304 110.928 7.96933 111.283 6.756C111.656 5.524 112.207 4.46933 112.935 3.592C113.663 2.696 114.578 2.00533 115.679 1.52C116.799 1.03467 118.106 0.791999 119.599 0.791999ZM119.207 4.068C117.994 4.068 117.107 4.63733 116.547 5.776C116.006 6.896 115.735 8.45467 115.735 10.452C115.735 11.404 115.791 12.272 115.903 13.056C116.034 13.84 116.239 14.5213 116.519 15.1C116.818 15.66 117.219 16.0987 117.723 16.416C118.227 16.7333 118.862 16.892 119.627 16.892C120.84 16.892 121.718 16.3507 122.259 15.268C122.8 14.1853 123.071 12.6453 123.071 10.648C123.071 9.696 123.006 8.81867 122.875 8.016C122.763 7.21333 122.558 6.52267 122.259 5.944C121.979 5.34667 121.587 4.88933 121.083 4.572C120.579 4.236 119.954 4.068 119.207 4.068ZM142.877 20H139.377L137.053 14.624C136.997 14.4747 136.885 14.204 136.717 13.812C136.568 13.4013 136.39 12.944 136.185 12.44C135.998 11.9173 135.802 11.3853 135.597 10.844C135.392 10.3027 135.205 9.808 135.037 9.36C135.037 9.84533 135.037 10.4053 135.037 11.04C135.037 11.6747 135.037 12.3187 135.037 12.972C135.037 13.6253 135.028 14.2413 135.009 14.82C135.009 15.3987 135 15.856 134.981 16.192L134.841 20H130.585L131.705 1.044H135.681L140.049 11.964C140.18 12.3 140.348 12.776 140.553 13.392C140.777 13.9893 140.992 14.6427 141.197 15.352C141.402 14.6613 141.608 14.0173 141.813 13.42C142.037 12.804 142.224 12.3187 142.373 11.964L146.741 1.044H150.633L151.753 20H147.413L147.245 16.192C147.226 15.8373 147.208 15.3707 147.189 14.792C147.189 14.2133 147.189 13.6067 147.189 12.972C147.189 12.3187 147.189 11.6747 147.189 11.04C147.208 10.3867 147.217 9.82667 147.217 9.36C147.068 9.752 146.9 10.2 146.713 10.704C146.545 11.1893 146.368 11.6653 146.181 12.132C145.994 12.5987 145.817 13.0373 145.649 13.448C145.481 13.84 145.35 14.148 145.257 14.372L142.877 20ZM154.955 1.044H167.023V4.432H159.575V8.492H165.763L165.231 11.824H159.575V16.612H167.415V20H154.955V1.044Z" fill="#FF7600"/>
</svg>
